<svg xmlns="http://www.w3.org/2000/svg" viewBox="0 0 192.7 78">
  <path d="M130.3 57.2c0 8.2-1.9 14.4-9.3 20.2l-8.1-6.8c4.2-4 5.6-7 5.7-11.9h-6.5V40.3h18.2v16.9zM112.3 9.8h18v18.3h-18zM0 58.7V.7h43.6v13.8H17.5v10.2h24.1v13.8H17.5v20.2zM84.3 58.7V36h-17v22.7H49.4V.7h17.9v20.4h16.9V.7h18v58H84.3zM140.5 58.7V.7h24.8c11.4 0 16.3 1.2 19.8 3.5 5.1 3.4 7.6 8.9 7.6 16.1 0 6.7-2.6 12.5-7.3 15.9-4 2.9-9.3 4.3-18.3 4.3h-8.8v18.2h-17.8zM165.1 27c3.5 0 6-.5 7.4-1.6 1.3-1.1 1.8-2.7 1.8-4.6 0-1.8-.5-3.4-1.8-4.6s-3.4-1.6-7.1-1.6h-7.1V27h6.8z"/>
</svg>
