<svg xmlns="http://www.w3.org/2000/svg" viewBox="0 0 681.9 724.2">
  <path d="M22.8 247c7.2 2.3 15-1.6 17.3-8.8 2.3-7.2-1.6-15-8.8-17.3-7.2-2.4-15 1.6-17.3 8.8-2.3 7.2 1.6 14.9 8.8 17.3M15.9 416.9c7.5-1.2 12.6-8.2 11.4-15.7-1.2-7.5-8.2-12.6-15.7-11.4C4.1 391-1 398 .2 405.5c1.2 7.5 8.2 12.6 15.7 11.4M86.9 571.5c6.1-4.5 7.5-13.1 3.1-19.2-4.5-6.2-13.1-7.5-19.2-3-6.1 4.4-7.5 13-3 19.2 4.3 6.1 12.9 7.5 19.1 3M220.3 677c3.5-6.8.8-15.1-6-18.5-6.8-3.4-15.1-.7-18.5 6-3.4 6.8-.7 15 6.1 18.5 6.7 3.5 14.9.8 18.4-6M387.1 710.5c0-7.6-6.1-13.8-13.7-13.8s-13.8 6.1-13.8 13.8c0 7.6 6.2 13.7 13.8 13.7 7.6 0 13.7-6.1 13.7-13.7M167.8 49.5l-6 5.1 26.1 30.7c7.3 8.6 9 16.8 5.4 26.1-1.9 4.7-4.9 8.9-8.9 12.3-11.7 10-26.9 9.6-35.8-1l-28.1-32.9-6 5.1-2.5-3 19.2-16.3 2.5 3-6 5.1 25.9 30.4c8.3 9.7 19.4 11.2 28.4 3.6 9.2-7.8 9.8-19.6 1.6-29.3l-25.9-30.3-6 5.1-2.5-3 16.2-13.8 2.4 3.1zM261.6 73.5l-21.1 11.2-1.8-3.5 7-3.7-14.5-27.4c-2.6-5-6.8-6.7-10.9-4.5-4 2.1-5.4 5.1-8.6 18.8l12.9 24.3 7.1-3.8 1.8 3.5-21.2 11.2-1.8-3.5 7.1-3.8-17.8-33.7-8.1 4.3-1.3-2.5 11.5-10.8 1.7-.9 5.5 10.5c2.7-11.8 5.4-16.5 11.4-19.7 6.9-3.7 13.6-1.5 17.4 5.8l15 28.3 7-3.7 1.7 3.6zM254.6 0c3-1 6.1.5 7.1 3.4 1 3-.5 6.1-3.5 7.1-2.9 1-6-.5-7-3.5-1-2.9.5-6 3.4-7M290 64.7l-22.7 7.8-1.3-3.7 7.6-2.6-12.4-36-8.7 3-.9-2.7 13.1-8.9 1.8-.6 14.6 42.6 7.6-2.6 1.3 3.7zM328.8 11.1l-4.4.9-7.9 47.9-2.1.4-27.1-40.7-4.4.8-.8-3.8 20.1-4.1.8 3.8-7.3 1.5 18.5 28.1 5.4-32.9-6.9 1.4-.8-3.8 16-3.2.9 3.7zM378.5 44.2c-5.8 4.1-8.6 5.2-12.8 5.4-10 .4-17.4-8.5-17.9-21.7v-1.2l33.3-1.4-.1-2.9c-.5-11.4-8.6-18.9-20-18.5-13.1.5-22.3 11.7-21.7 26.5.6 14.6 10.5 24.6 24 24 6.1-.2 9.8-1.7 17.5-6.5l-2.3-3.7zm-30.9-21.7c.6-8.3 5.8-13.7 13.5-14 6.1-.3 10.7 4.1 10.9 10.4l.1 2.5-24.5 1.1zM413.2 55.5l-26-2.7.4-3.9 8 .8 3.9-37.9-9.2-.9.3-2.9 15.6-2.5 1.9.2-1.2 11.8c8.6-8.9 11.5-10.9 15.3-10.6 1.3.1 2.3.6 2.9 1.3l2.9 3.2-6.8 6.7c-1.9-2.2-3.3-3.3-4.3-3.4-1.9-.2-4 1.4-10.5 7.9l-2.9 28 10.1 1-.4 3.9zM430.3 59.2l-4.1-1 3.5-14.6 4.7 1.1-.7 2.8c-1.1 4.4 3.8 9.7 10.1 11.3 5.6 1.4 10.6-.6 11.6-4.7 1-4.1-1.3-7.1-11.1-13.9-8.9-6.2-11.5-10.8-9.9-17.3 1.9-8 9.7-11.9 19.2-9.6 4.5 1.1 7.7 3.1 10 6.1l1.5-3.5 4.4 1.1-6.1 14.2-4.4-1.1c.7-1 1.2-2.3 1.4-3.2 1-4-2.9-8.4-8.4-9.8-5.3-1.3-9.5.7-10.6 5.2-1.1 4.4-.5 5.1 10.7 13.2 9.1 6.5 11.5 10.6 9.9 17.2-2 8.2-9.8 12.4-18.9 10.2-5.8-1.4-9.8-3.8-12.1-7.3l-.7 3.6zM502.6 3.9c3 1.1 4.4 4.3 3.3 7.1-1.1 3-4.3 4.4-7.2 3.3-2.9-1.1-4.3-4.2-3.2-7.2 1.1-2.9 4.3-4.3 7.1-3.2m-14 72.4l-22.5-8.5 1.4-3.7 7.5 2.8 13.5-35.6-8.6-3.3 1-2.7 15.7 1.5 1.8.7-15.9 42.2 7.5 2.8-1.4 3.8zM520.3 86.9c-7 1.5-9.3 1.4-12.8-.4-5.5-2.7-7.1-7.8-4.2-13.6l14.6-29.3-8.2-4.1 1.3-2.6 9.3 2 6.5-13.1 6.8 3.4-6.7 13.3 11.7 5.9-2.2 4.3-11.7-5.9-14.2 28.4c-1.8 3.6-1.2 5.5 1.9 7.1 2 1 3.4 1.2 7.6.9l.3 3.7zM549.9 99.1c-6.2.8-9.3.4-12.1-1.5-3.7-2.5-4.4-6.5-1.9-10.1l3-4.4 17.3 6.8-6.3 9.2zm19.7-49.2c1.7-2.4 1.1-5.8-1.3-7.4-2.4-1.7-5.7-1-7.4 1.5-1.6 2.3-1.1 5.7 1.4 7.4 2.4 1.5 5.7.8 7.3-1.5m-9.5 62.8l-6.7-4.6 18.5-26.8c3.9-5.8 1.5-13.1-6.1-18.3-7.9-5.4-16.4-5.7-19.8-.7-.7 1-.9 1.5-1 2.9l9.3 3 2.9-4.2c3.4.5 4.7 1 6.4 2.2 3.5 2.4 4.4 6.7 2 10.2l-6.8 9.8-17.2-6.8c-4.9-1.9-10.3-.2-13.3 4.2-4 5.8-2.4 13.1 3.6 17.2 4.6 3.2 9.2 3.6 16 1.6l-.6.9c-2.2 3.2-2 6.2.7 8.1.7.5 2.1 1.1 3.5 1.5l7.1 2.2 1.5-2.4zM585 60.5c1.7-2.4 1.1-5.8-1.3-7.4-2.4-1.7-5.7-1-7.4 1.4-1.6 2.4-1.1 5.7 1.4 7.4 2.4 1.6 5.7.9 7.3-1.4M583.3 134.7c-7.1-.4-9.3-1.1-12.3-3.7-4.6-4.1-4.8-9.4-.5-14.2l21.8-24.4-6.9-6.1 1.9-2.1 8.4 4.4 9.7-10.9 5.7 5.1-9.9 11.1 9.8 8.7-3.2 3.6-9.8-8.7-21.2 23.7c-2.7 3-2.6 5 0 7.3 1.6 1.5 3 2.1 7 2.9l-.5 3.3zM85.8 404.7l-5.1-25.6 3.8-.8 1.5 7.8 60.8-12-1.5-7.8 3.8-.8 5.9 29.7c2.4 12-4.1 22-15.7 24.2-11.6 2.3-22.6-5.8-25.1-18.6-.4-2-.5-3.1-.5-5.9l3.6-.7c0 1.4.1 1.9.2 2.9 1.7 8.9 10.7 14.8 19.9 13 8.3-1.6 13.9-8.4 12.5-15.3l-2.2-11.3L88 395.2l1.7 8.8-3.9.7zM104 466.1c5.2 11.7 19.8 16.5 32.5 10.8 12.8-5.7 18.9-19.8 13.7-31.5-5.2-11.7-19.8-16.5-32.5-10.8-12.8 5.7-18.9 19.8-13.7 31.5m42.1-18.8c3.2 7.2-2.5 16.6-13.2 21.4-10.7 4.8-21.6 2.8-24.8-4.5-3.2-7.2 2.7-16.6 13.3-21.3 10.7-4.7 21.5-2.8 24.7 4.4M144.3 523c-6.8-2.1-8.8-3.3-11.1-6.5-3.5-5.1-2.5-10.3 2.9-13.9L163 484l-5.2-7.6 2.3-1.6 7.1 6.3 12-8.3 4.3 6.3-12.3 8.5 7.4 10.8-4 2.8-7.4-10.8-26.1 18c-3.3 2.3-3.8 4.2-1.8 7.1 1.3 1.8 2.4 2.7 6.2 4.5l-1.2 3zM153.1 541.8l-3-3 10.8-10.4 3.4 3.5-2 2c-3.3 3.2-2.1 10.2 2.5 14.9 4 4.2 9.3 5.2 12.3 2.2 3-2.9 2.6-6.7-2-17.7-4.2-10-3.9-15.3.9-20 6-5.7 14.6-4.8 21.4 2.2 3.2 3.3 4.9 6.7 5.2 10.6l3.2-2.2 3.2 3.3-12.7 8.8-3.2-3.3c1.1-.5 2.3-1.3 2.9-2 3-2.9 2.1-8.6-1.9-12.7-3.8-3.9-8.5-4.5-11.7-1.3-3.3 3.2-3.1 4.1 2 16.9 4.2 10.3 4 15.1-.9 19.8-6.1 5.9-14.9 5.3-21.4-1.5-4.1-4.2-6.2-8.4-6.3-12.6l-2.7 2.5zM234.8 599.5l-7.6-5.2 40.4-59.6-1.7-1.1-14.9-5.1-1.6 2.4 7.6 5.2-13.7 20.2c-2.1-4-3.4-5.5-6.4-7.5-11.5-7.8-27.3-4.3-35.5 7.8-7.6 11.2-6.4 24.9 2.7 31.1 4.5 3 8.6 3.5 16.7 2l-4.1 6.1 1.7 1.1 14.9 5.2 1.5-2.6zm-15.1-13.9c-4.7.3-6.3-.1-9.1-1.9-7.2-4.9-7.5-13.6-.8-23.4 6.8-10.1 17.1-13 25.6-7.2 5.2 3.5 5.7 6.5 2 12l-13.8 20.3c-1.7 0-3.1.1-3.9.2M287 622.3l-7.6-3 12.1-30.3c2.6-6.5-1.4-13.1-10-16.5-8.9-3.6-17.2-2-19.5 3.7-.4 1.1-.5 1.6-.3 3.1l9.8.9 1.9-4.7c3.4-.2 4.8 0 6.8.8 3.9 1.6 5.7 5.6 4.2 9.5l-4.4 11.1-18.3-2.9c-5.1-.8-10 2-12 7.1-2.6 6.6.5 13.3 7.3 16 5.2 2.1 9.8 1.5 15.9-2-.2.4-.3.7-.4 1-1.4 3.6-.5 6.5 2.5 7.7.8.3 2.3.6 3.7.7l7.4.6.9-2.8zm-12.9-11.1c-5.8 2.1-8.9 2.5-12.1 1.2-4.1-1.6-5.7-5.3-4.1-9.5l2-4.9 18.4 2.8-4.2 10.4zM388.6 642.4l-23.8-2.3.4-3.9 8 .8 3-30.8c.6-5.7-2-9.2-6.6-9.7-3.5-.3-6.4 1-11.4 5.4l-6.2 5.5-2.7 27.4 7.9.8-.4 3.9-23.8-2.3.4-3.9 7.9.8 3-30.8c.5-5.6-2-9.3-6.6-9.8-4.5-.5-7.4 1.3-17.5 10.9l-2.7 27.4 8 .8-.4 3.9-23.9-2.3.4-3.9 8 .8 3.7-37.9-9.2-.9.3-2.8 15.5-2.6 1.9.2-1.2 11.8c8.8-8.4 13.6-10.8 20.3-10.1 7.5.7 11.2 5 11.5 13.2 8.8-8.4 13.6-10.8 20.2-10.1 7.8.8 12.1 6.3 11.4 14.3l-3.1 32 7.9.8-.2 3.4zM509.8 320.5H496v86.6h13.8v-86.6zm37.1 0h-26.5v86.6h26.5v-86.6zM494 465.2h79.3v-46.4H494v46.4zm-48.3-23.1c0 9.6 15.9 18.1 39.9 23V419c-21.4 4.4-39.9 12.5-39.9 23.1m-31.1-121.6h-13.9v86.7h13.9v-86.7zm14.6 86.7H443v-86.7h-13.8v86.7zm28.3 0h13.9v-86.7h-13.9v86.7zm28.1 69.2v28.9c-38-5.6-65.2-17.8-71-32.3h-28.4V300.5h99.4v106.7c-41.6 5.9-70.7 19.4-70.5 34.8.2 17.4 36.1 29.7 70.5 34.4m85.7-155.9h-13.9v86.6h13.9v-86.6zm50.2 121.6c0-10.6-18.5-18.7-39.9-23v46.1c24.1-5 39.9-13.5 39.9-23.1m-25.7-34.9h13.9v-86.7h-13.9v86.7zm28.4 0H638v-86.7h-13.9v86.7zm28.4 0h13.9v-86.7h-13.9v86.7zm-71-106.7H681V473h-28.4c-5.7 14.6-32.9 26.7-71 32.3v-28.9c34.4-4.7 70.3-17 70.5-34.5.2-15.4-29-28.9-70.5-34.8V300.5zm-195.4-19.4c-.5-1.5-.9-3.6-.9-6 0-4.5 1.2-8.2 2.8-8.2 1.5 0 2.8 3.7 2.8 8.2 0 2.4-.4 4.5-.9 6h21.5c-.5-1.5-.9-3.6-.9-6 0-4.5 1.3-8.2 2.8-8.2 1.5 0 2.8 3.7 2.8 8.2 0 2.4-.3 4.5-.9 6h21.3c-.5-1.5-.9-3.6-.9-6 0-4.5 1.2-8.2 2.8-8.2 1.5 0 2.8 3.7 2.8 8.2 0 2.4-.3 4.5-.9 6h21.3c-.5-1.5-.9-3.6-.9-6 0-4.5 1.2-8.2 2.8-8.2 1.5 0 2.8 3.7 2.8 8.2 0 2.4-.3 4.5-.9 6h20.3v-30.5h6.9c.8-2.1 2-5.9 1.9-10.2-.7-22 11.2-40.2 37.2-41.1-.5-1.5-.8-3.4-.8-5.6 0-4.5 1.3-8.2 2.8-8.2 1.5 0 2.8 3.7 2.8 8.2 0 2.2-.3 4.2-.8 5.6 26 .9 37.9 19.1 37.2 41.1-.1 4.3 1.1 8.1 1.9 10.2h6.9v30.5H602c-.5-1.5-.9-3.6-.9-6 0-4.5 1.2-8.2 2.8-8.2 1.5 0 2.8 3.7 2.8 8.2 0 2.4-.3 4.5-.9 6h21.3c-.5-1.5-.9-3.6-.9-6 0-4.5 1.2-8.2 2.8-8.2 1.5 0 2.8 3.7 2.8 8.2 0 2.4-.4 4.5-.9 6H652c-.6-1.5-.9-3.6-.9-6 0-4.5 1.2-8.2 2.8-8.2 1.5 0 2.8 3.7 2.8 8.2 0 2.4-.4 4.5-.9 6h21.5c-.6-1.5-.9-3.6-.9-6 0-4.5 1.2-8.2 2.8-8.2 1.5 0 2.8 3.7 2.8 8.2 0 2.4-.4 4.5-.9 6v11.4h-99.4v7.8h-96.1v-7.8h96l-48-25.7-48 25.7h-99.4v-11.4z"/>
</svg>
